{
  "asset": {
    "generator": "FBX2glTF",
    "version": "2.0"
  },
  "scene": 0,
  "buffers": [
    {
      "uri": "flying-saucer_data.bin",
      "byteLength": 80112
    }
  ],
  "bufferViews": [
    {
      "buffer": 0,
      "byteLength": 816,
      "byteOffset": 0,
      "target": 34963
    },
    {
      "buffer": 0,
      "byteLength": 3360,
      "byteOffset": 816,
      "target": 34962
    },
    {
      "buffer": 0,
      "byteLength": 3360,
      "byteOffset": 4176,
      "target": 34962
    },
    {
      "buffer": 0,
      "byteLength": 4480,
      "byteOffset": 7536,
      "target": 34962
    },
    {
      "buffer": 0,
      "byteLength": 2240,
      "byteOffset": 12016,
      "target": 34962
    },
    {
      "buffer": 0,
      "byteLength": 576,
      "byteOffset": 14256,
      "target": 34963
    },
    {
      "buffer": 0,
      "byteLength": 2496,
      "byteOffset": 14832,
      "target": 34962
    },
    {
      "buffer": 0,
      "byteLength": 2496,
      "byteOffset": 17328,
      "target": 34962
    },
    {
      "buffer": 0,
      "byteLength": 3328,
      "byteOffset": 19824,
      "target": 34962
    },
    {
      "buffer": 0,
      "byteLength": 1664,
      "byteOffset": 23152,
      "target": 34962
    },
    {
      "buffer": 0,
      "byteLength": 2688,
      "byteOffset": 24816,
      "target": 34963
    },
    {
      "buffer": 0,
      "byteLength": 11520,
      "byteOffset": 27504,
      "target": 34962
    },
    {
      "buffer": 0,
      "byteLength": 11520,
      "byteOffset": 39024,
      "target": 34962
    },
    {
      "buffer": 0,
      "byteLength": 15360,
      "byteOffset": 50544,
      "target": 34962
    },
    {
      "buffer": 0,
      "byteLength": 7680,
      "byteOffset": 65904,
      "target": 34962
    },
    {
      "buffer": 0,
      "byteLength": 384,
      "byteOffset": 73584,
      "target": 34963
    },
    {
      "buffer": 0,
      "byteLength": 1536,
      "byteOffset": 73968,
      "target": 34962
    },
    {
      "buffer": 0,
      "byteLength": 1536,
      "byteOffset": 75504,
      "target": 34962
    },
    {
      "buffer": 0,
      "byteLength": 2048,
      "byteOffset": 77040,
      "target": 34962
    },
    {
      "buffer": 0,
      "byteLength": 1024,
      "byteOffset": 79088,
      "target": 34962
    }
  ],
  "scenes": [
    {
      "name": "Root Scene",
      "nodes": [
        0
      ]
    }
  ],
  "accessors": [
    {
      "componentType": 5123,
      "type": "SCALAR",
      "count": 408,
      "bufferView": 0,
      "byteOffset": 0
    },
    {
      "componentType": 5126,
      "type": "VEC3",
      "count": 280,
      "bufferView": 1,
      "byteOffset": 0,
      "min": [
        -0.0111910598352551,
        -0.000425929989432916,
        -0.0111910598352551
      ],
      "max": [
        0.0111910598352551,
        0.00788560975342989,
        0.0111910598352551
      ]
    },
    {
      "componentType": 5126,
      "type": "VEC3",
      "count": 280,
      "bufferView": 2,
      "byteOffset": 0
    },
    {
      "componentType": 5126,
      "type": "VEC4",
      "count": 280,
      "bufferView": 3,
      "byteOffset": 0
    },
    {
      "componentType": 5126,
      "type": "VEC2",
      "count": 280,
      "bufferView": 4,
      "byteOffset": 0
    },
    {
      "componentType": 5123,
      "type": "SCALAR",
      "count": 288,
      "bufferView": 5,
      "byteOffset": 0
    },
    {
      "componentType": 5126,
      "type": "VEC3",
      "count": 208,
      "bufferView": 6,
      "byteOffset": 0,
      "min": [
        -0.00999999977648258,
        -0.00254692998714745,
        -0.00999999977648258
      ],
      "max": [
        0.00999999977648258,
        0.00320518994703889,
        0.00999999977648258
      ]
    },
    {
      "componentType": 5126,
      "type": "VEC3",
      "count": 208,
      "bufferView": 7,
      "byteOffset": 0
    },
    {
      "componentType": 5126,
      "type": "VEC4",
      "count": 208,
      "bufferView": 8,
      "byteOffset": 0
    },
    {
      "componentType": 5126,
      "type": "VEC2",
      "count": 208,
      "bufferView": 9,
      "byteOffset": 0
    },
    {
      "componentType": 5123,
      "type": "SCALAR",
      "count": 1344,
      "bufferView": 10,
      "byteOffset": 0
    },
    {
      "componentType": 5126,
      "type": "VEC3",
      "count": 960,
      "bufferView": 11,
      "byteOffset": 0,
      "min": [
        -0.00801150035113096,
        0.00147909997031093,
        -0.00801150035113096
      ],
      "max": [
        0.00801150035113096,
        0.00210083997808397,
        0.00801150035113096
      ]
    },
    {
      "componentType": 5126,
      "type": "VEC3",
      "count": 960,
      "bufferView": 12,
      "byteOffset": 0
    },
    {
      "componentType": 5126,
      "type": "VEC4",
      "count": 960,
      "bufferView": 13,
      "byteOffset": 0
    },
    {
      "componentType": 5126,
      "type": "VEC2",
      "count": 960,
      "bufferView": 14,
      "byteOffset": 0
    },
    {
      "componentType": 5123,
      "type": "SCALAR",
      "count": 192,
      "bufferView": 15,
      "byteOffset": 0
    },
    {
      "componentType": 5126,
      "type": "VEC3",
      "count": 128,
      "bufferView": 16,
      "byteOffset": 0,
      "min": [
        -0.00387468002736568,
        0.0030294491443783,
        -0.00387468002736568
      ],
      "max": [
        0.00387468002736568,
        0.00605757022276521,
        0.00387468002736568
      ]
    },
    {
      "componentType": 5126,
      "type": "VEC3",
      "count": 128,
      "bufferView": 17,
      "byteOffset": 0
    },
    {
      "componentType": 5126,
      "type": "VEC4",
      "count": 128,
      "bufferView": 18,
      "byteOffset": 0
    },
    {
      "componentType": 5126,
      "type": "VEC2",
      "count": 128,
      "bufferView": 19,
      "byteOffset": 0
    }
  ],
  "samplers": [
    {}
  ],
  "materials": [
    {
      "name": "dark",
      "alphaMode": "OPAQUE",
      "extras": {
        "fromFBX": {
          "shadingModel": "Lambert",
          "isTruePBR": false
        }
      },
      "pbrMetallicRoughness": {
        "baseColorFactor": [
          0.0504090189933777,
          0.0744454935193062,
          0.106296695768833,
          1
        ],
        "metallicFactor": 0.200000002980232,
        "roughnessFactor": 0.800000011920929
      }
    },
    {
      "name": "dark2",
      "alphaMode": "OPAQUE",
      "extras": {
        "fromFBX": {
          "shadingModel": "Lambert",
          "isTruePBR": false
        }
      },
      "pbrMetallicRoughness": {
        "baseColorFactor": [
          0.338609874248505,
          0.325789511203766,
          0.330030888319016,
          1
        ],
        "metallicFactor": 0.200000002980232,
        "roughnessFactor": 0.800000011920929
      }
    },
    {
      "name": "purple",
      "alphaMode": "OPAQUE",
      "extras": {
        "fromFBX": {
          "shadingModel": "Lambert",
          "isTruePBR": false
        }
      },
      "pbrMetallicRoughness": {
        "baseColorFactor": [
          0.344791650772095,
          0.800000011920929,
          0.215199992060661,
          1
        ],
        "metallicFactor": 0.200000002980232,
        "roughnessFactor": 0.800000011920929
      }
    },
    {
      "name": "light",
      "alphaMode": "OPAQUE",
      "extras": {
        "fromFBX": {
          "shadingModel": "Lambert",
          "isTruePBR": false
        }
      },
      "pbrMetallicRoughness": {
        "baseColorFactor": [
          0.669879555702209,
          0.648357570171356,
          0.627244114875793,
          1
        ],
        "metallicFactor": 0.200000002980232,
        "roughnessFactor": 0.800000011920929
      }
    }
  ],
  "meshes": [
    {
      "name": "flying_sacuer:Mesh",
      "primitives": [
        {
          "material": 0,
          "mode": 4,
          "attributes": {
            "NORMAL": 2,
            "POSITION": 1,
            "TANGENT": 3,
            "TEXCOORD_0": 4
          },
          "indices": 0
        },
        {
          "material": 1,
          "mode": 4,
          "attributes": {
            "NORMAL": 7,
            "POSITION": 6,
            "TANGENT": 8,
            "TEXCOORD_0": 9
          },
          "indices": 5
        },
        {
          "material": 2,
          "mode": 4,
          "attributes": {
            "NORMAL": 12,
            "POSITION": 11,
            "TANGENT": 13,
            "TEXCOORD_0": 14
          },
          "indices": 10
        },
        {
          "material": 3,
          "mode": 4,
          "attributes": {
            "NORMAL": 17,
            "POSITION": 16,
            "TANGENT": 18,
            "TEXCOORD_0": 19
          },
          "indices": 15
        }
      ]
    }
  ],
  "nodes": [
    {
      "name": "RootNode",
      "translation": [
        0,
        0,
        0
      ],
      "rotation": [
        0,
        0,
        0,
        1
      ],
      "scale": [
        1,
        1,
        1
      ],
      "children": [
        1
      ]
    },
    {
      "name": "flying_sacuer:Mesh",
      "translation": [
        0,
        0,
        0
      ],
      "rotation": [
        0,
        0,
        0,
        1
      ],
      "scale": [
        1,
        1,
        1
      ],
      "mesh": 0
    }
  ]
}